<?xml version="1.0" standalone="no"?>
<!DOCTYPE svg PUBLIC "-//W3C//DTD SVG 20010904//EN"
 "http://www.w3.org/TR/2001/REC-SVG-20010904/DTD/svg10.dtd">
<svg version="1.0" xmlns="http://www.w3.org/2000/svg"
 width="225.000000pt" height="225.000000pt" viewBox="0 0 225.000000 225.000000"
 preserveAspectRatio="xMidYMid meet">
<metadata>
Created by potrace 1.10, written by Peter Selinger 2001-2011
</metadata>
<g transform="translate(0.000000,225.000000) scale(0.100000,-0.100000)"
fill="#000000" stroke="none">
<path d="M1024 1768 c-61 -20 -127 -80 -162 -148 -32 -61 -34 -70 -30 -145 5
-93 28 -145 89 -205 138 -134 378 -92 471 82 33 61 33 204 1 264 -36 67 -70
101 -135 133 -52 26 -72 31 -132 30 -39 -1 -85 -6 -102 -11z m206 -49 c95 -43
150 -129 150 -235 0 -238 -305 -344 -458 -158 -73 89 -70 236 7 325 71 84 201
113 301 68z"/>
<path d="M232 1507 c-126 -46 -186 -198 -128 -322 41 -89 114 -135 216 -135
255 0 327 344 95 451 -46 21 -133 24 -183 6z m200 -63 c53 -38 81 -91 81 -157
0 -115 -81 -197 -192 -197 -61 0 -97 13 -135 48 -80 75 -86 201 -13 281 62 68
182 80 259 25z"/>
<path d="M1835 1501 c-88 -40 -138 -119 -139 -216 0 -101 54 -183 147 -223 42
-18 145 -15 193 7 80 36 134 126 134 222 0 50 -36 133 -71 166 -66 60 -185 80
-264 44z m173 -36 c103 -44 149 -160 103 -260 -36 -78 -95 -115 -182 -115
-204 0 -269 278 -87 369 51 25 114 27 166 6z"/>
<path d="M849 1131 c-46 -15 -78 -42 -99 -85 -19 -39 -20 -61 -20 -312 l0
-269 396 0 395 0 -3 281 c-3 279 -3 281 -28 316 -48 72 -54 73 -350 75 -146 1
-277 -2 -291 -6z m570 -55 c55 -29 62 -66 59 -326 l-3 -235 -350 0 -350 0 -3
225 c-2 124 0 239 3 257 3 18 19 46 36 63 l31 30 274 0 c219 0 281 -3 303 -14z"/>
<path d="M44 966 c-19 -19 -34 -43 -34 -54 0 -11 -3 -29 -6 -39 -4 -10 16 6
43 35 l50 52 211 0 c136 0 220 -4 236 -11 41 -19 47 -50 44 -249 l-3 -185
-292 -3 c-285 -2 -293 -3 -293 -22 0 -19 8 -20 305 -21 168 -1 310 -2 316 -3
7 -1 10 69 9 223 -1 204 -3 228 -20 256 -32 52 -50 55 -301 55 l-231 0 -34
-34z"/>
<path d="M1682 988 c-12 -6 -31 -25 -42 -43 -17 -28 -19 -52 -20 -253 -1 -122
1 -222 4 -222 653 0 626 -1 626 20 0 19 -8 20 -292 22 l-293 3 -3 190 c-3 203
1 224 45 244 32 14 427 15 454 1 11 -6 31 -29 44 -50 33 -52 44 -51 35 2 -6
29 -18 52 -39 70 l-31 28 -233 -1 c-146 0 -240 -4 -255 -11z"/>
</g>
</svg>
