<?xml version="1.0" standalone="no"?>
<!DOCTYPE svg PUBLIC "-//W3C//DTD SVG 20010904//EN"
 "http://www.w3.org/TR/2001/REC-SVG-20010904/DTD/svg10.dtd">
<svg version="1.0" xmlns="http://www.w3.org/2000/svg"
 width="225.000000pt" height="225.000000pt" viewBox="0 0 225.000000 225.000000"
 preserveAspectRatio="xMidYMid meet">

<g transform="translate(0.000000,225.000000) scale(0.100000,-0.100000)"
fill="#000000" stroke="none">
<path d="M213 2175 c-22 -16 -23 -21 -23 -204 0 -169 2 -190 18 -204 15 -14
42 -17 150 -17 l132 0 0 -55 0 -54 -127 -3 -128 -3 -12 -40 c-6 -22 -33 -132
-59 -243 -36 -157 -45 -215 -41 -252 8 -64 30 -105 72 -133 l35 -22 0 -312 c0
-306 0 -313 20 -313 20 0 20 7 20 310 l0 310 26 0 c36 0 91 28 114 58 11 13
20 19 20 13 0 -22 92 -71 134 -71 41 0 100 27 123 57 10 13 17 11 52 -17 58
-47 123 -52 186 -16 25 15 45 31 45 36 0 17 25 11 37 -8 16 -27 75 -52 120
-52 38 0 98 28 120 58 12 14 16 13 40 -10 34 -33 73 -48 121 -48 37 0 97 29
118 58 10 13 16 11 50 -16 68 -55 147 -55 209 0 l35 30 35 -31 c20 -17 46 -33
60 -37 23 -6 24 -11 27 -82 2 -61 6 -77 18 -77 12 0 16 16 18 77 l3 77 33 11
c33 11 75 49 94 85 5 11 13 46 17 79 7 55 3 72 -66 287 l-73 228 -110 3 -111
3 -3 58 -3 57 140 0 c181 0 171 -13 171 216 0 154 -2 174 -19 195 l-19 24
-899 3 c-810 3 -900 1 -920 -13z m1803 -40 c7 -2 10 -58 8 -172 l-2 -168 -894
0 -893 0 -3 165 c-1 90 0 170 2 177 5 11 169 12 888 7 486 -3 888 -7 894 -9z
m-1336 -440 l0 -55 -76 0 -75 0 4 53 c3 28 6 53 6 55 1 1 33 2 71 2 l70 0 0
-55z m850 0 l0 -55 -400 0 -400 0 0 55 0 55 400 0 400 0 0 -55z m190 0 l0 -55
-75 0 -75 0 0 55 0 55 75 0 75 0 0 -55z m-1253 -132 c-3 -16 -18 -106 -33
-200 l-27 -173 -112 0 c-61 0 -114 2 -117 5 -3 3 15 85 38 183 24 97 44 185
44 195 0 15 12 17 106 17 l107 0 -6 -27z m248 -15 c-5 -40 -25 -324 -25 -347
0 -7 -42 -11 -120 -11 -120 0 -120 0 -116 23 3 12 17 102 32 200 l28 177 103
0 103 0 -5 -42z m255 -158 l0 -200 -120 0 -121 0 6 58 c6 66 25 308 25 328 0
11 23 14 105 14 l105 0 0 -200z m244 168 c7 -42 26 -290 26 -334 l0 -34 -115
0 -115 0 0 200 0 200 100 0 99 0 5 -32z m250 5 c9 -40 56 -345 56 -360 0 -10
-30 -13 -114 -13 l-115 0 -5 43 c-7 48 -26 299 -26 334 0 22 2 23 99 23 l99 0
6 -27z m246 22 c0 -2 18 -82 40 -177 22 -95 42 -183 45 -196 l6 -23 -118 3
-118 3 -27 175 c-37 247 -46 220 72 220 55 0 100 -2 100 -5z m304 -183 c32
-103 61 -193 63 -199 4 -10 -24 -13 -116 -13 -104 0 -121 2 -121 16 0 9 -13
70 -30 137 -16 67 -36 150 -44 185 l-14 62 101 0 102 0 59 -188z m74 -289 c6
-62 -57 -133 -118 -133 -38 0 -90 36 -106 75 -17 42 -18 82 -1 89 6 2 59 4
117 3 l105 -2 3 -32z m-1678 2 c0 -70 -61 -135 -125 -135 -39 0 -93 33 -105
66 -6 14 -10 41 -10 60 l0 34 120 0 120 0 0 -25z m280 0 c0 -69 -60 -135 -123
-135 -64 0 -117 58 -117 129 l0 31 120 0 120 0 0 -25z m280 0 c0 -71 -61 -135
-128 -135 -51 0 -103 53 -109 113 l-6 47 122 0 121 0 0 -25z m280 0 c0 -43
-27 -94 -62 -115 -84 -51 -178 8 -178 111 l0 29 120 0 120 0 0 -25z m280 0 c0
-35 -23 -86 -48 -109 -12 -10 -41 -21 -65 -23 -40 -5 -49 -2 -82 29 -30 27
-38 43 -42 81 l-6 47 122 0 121 0 0 -25z m280 -5 c0 -68 -61 -130 -128 -130
-51 0 -103 53 -109 113 l-6 47 122 0 121 0 0 -30z"/>
<path d="M296 2049 c-37 -29 -37 -99 0 -128 38 -30 104 -26 104 5 0 12 -4 12
-21 4 -29 -16 -68 -4 -78 23 -23 59 19 108 74 87 19 -7 25 -6 25 4 0 31 -66
35 -104 5z"/>
<path d="M1449 2049 c-29 -29 -20 -51 33 -77 35 -16 46 -26 41 -38 -5 -13 -15
-15 -50 -10 -42 5 -59 -6 -27 -18 32 -12 81 -6 98 13 27 30 16 54 -32 71 -27
9 -42 20 -42 31 0 22 24 31 55 19 19 -7 25 -6 25 4 0 31 -71 35 -101 5z"/>
<path d="M1590 1985 c0 -67 3 -85 14 -85 11 0 16 14 18 48 3 39 6 47 23 47 17
0 20 -8 23 -47 2 -34 7 -48 18 -48 10 0 14 12 14 43 0 56 -18 82 -53 75 -24
-5 -27 -2 -27 23 0 19 -5 29 -15 29 -12 0 -15 -16 -15 -85z"/>
<path d="M1083 2053 c-7 -3 -13 -11 -13 -18 0 -7 -6 -16 -12 -19 -10 -5 -10
-7 0 -12 6 -3 12 -19 12 -35 0 -41 17 -69 40 -69 23 0 27 15 5 24 -9 3 -15 19
-15 41 0 24 4 35 15 35 8 0 15 5 15 10 0 6 -6 10 -14 10 -8 0 -16 8 -18 18 -2
11 -9 17 -15 15z"/>
<path d="M436 1998 c-40 -57 12 -117 78 -92 25 10 32 71 11 94 -25 27 -70 26
-89 -2z m72 -14 c21 -38 -17 -79 -46 -50 -20 20 -8 66 18 66 10 0 23 -7 28
-16z"/>
<path d="M570 1958 c0 -44 4 -58 14 -58 11 0 16 14 18 48 2 34 7 47 18 47 11
0 16 -13 18 -47 4 -63 29 -67 34 -5 2 34 7 43 25 45 19 3 22 -2 25 -43 4 -56
22 -60 26 -6 5 71 -6 80 -98 78 l-80 -1 0 -58z"/>
<path d="M780 1933 c0 -67 3 -83 15 -83 10 0 15 10 15 30 0 22 4 28 15 24 50
-20 88 32 63 84 -12 24 -19 27 -61 27 l-47 1 0 -83z m86 41 c8 -30 -16 -60
-40 -51 -16 6 -23 57 -9 70 16 16 43 6 49 -19z"/>
<path d="M927 2013 c-6 -11 0 -90 8 -102 3 -6 27 -10 53 -8 l47 3 -3 54 c-2
30 -5 56 -7 58 -12 12 -25 -14 -25 -49 0 -26 -5 -42 -15 -46 -22 -8 -27 0 -32
52 -5 41 -16 57 -26 38z"/>
<path d="M1160 2001 c-28 -53 10 -111 65 -97 36 9 31 24 -7 22 -23 -1 -33 4
-36 17 -3 14 4 17 37 17 45 0 48 5 25 38 -20 28 -69 30 -84 3z m68 -18 c2 -8
-6 -13 -22 -13 -17 0 -26 5 -26 16 0 19 41 16 48 -3z"/>
<path d="M1280 1959 c0 -46 3 -59 15 -59 11 0 15 11 15 40 0 28 5 42 19 49 10
6 21 7 25 4 3 -3 6 1 6 10 0 12 -10 16 -40 15 l-40 0 0 -59z"/>
<path d="M1746 2007 c-26 -19 -24 -76 4 -99 39 -32 90 -5 90 48 0 55 -50 83
-94 51z m64 -22 c16 -19 -2 -65 -24 -65 -22 0 -35 31 -25 58 10 26 31 29 49 7z"/>
<path d="M1874 2011 c-2 -2 -4 -40 -4 -83 0 -63 3 -78 15 -78 10 0 15 10 15
28 0 26 3 28 33 24 30 -3 35 0 47 28 12 28 11 37 -1 59 -12 22 -22 26 -58 26
-23 0 -45 -2 -47 -4z m82 -36 c8 -34 -1 -55 -25 -55 -22 0 -35 30 -26 60 9 29
43 26 51 -5z"/>
<path d="M416 714 c-3 -8 -6 -150 -6 -315 l0 -300 -67 3 -68 3 -5 85 c-4 67
-8 85 -20 85 -12 0 -16 -18 -20 -85 l-5 -85 -32 -3 c-25 -2 -33 -8 -33 -23 0
-19 15 -19 957 -17 890 3 958 4 961 20 3 13 -6 17 -40 20 l-43 3 -5 305 c-4
262 -7 305 -20 305 -13 0 -16 -43 -20 -305 l-5 -305 -497 -3 -498 -2 -2 312
-3 313 -261 3 c-232 2 -262 1 -268 -14z m484 -319 l0 -295 -220 0 -220 0 0
295 0 295 220 0 220 0 0 -295z"/>
<path d="M511 451 c-7 -5 -11 -19 -9 -32 4 -31 40 -33 44 -3 4 26 -16 46 -35
35z"/>
<path d="M1164 717 c-2 -7 -3 -114 -2 -237 l3 -225 323 -3 322 -2 0 240 0 240
-320 0 c-250 0 -322 -3 -326 -13z m606 -227 l0 -200 -283 0 -283 0 -2 191 c-1
106 1 196 4 200 3 5 131 9 285 9 l279 0 0 -200z"/>
<path d="M26 92 c-10 -17 12 -33 40 -30 18 2 30 10 32 21 3 13 -4 17 -32 17
-19 0 -37 -4 -40 -8z"/>
<path d="M2130 80 c0 -17 7 -20 44 -20 28 0 46 5 49 14 8 21 -2 26 -50 26 -36
0 -43 -3 -43 -20z"/>
</g>
</svg>
