<?xml version="1.0" standalone="no"?>
<!DOCTYPE svg PUBLIC "-//W3C//DTD SVG 20010904//EN"
 "http://www.w3.org/TR/2001/REC-SVG-20010904/DTD/svg10.dtd">
<svg version="1.0" xmlns="http://www.w3.org/2000/svg"
 width="225.000000pt" height="225.000000pt" viewBox="0 0 225.000000 225.000000"
 preserveAspectRatio="xMidYMid meet">
<metadata>
Created by potrace 1.10, written by Peter Selinger 2001-2011
</metadata>
<g transform="translate(0.000000,225.000000) scale(0.100000,-0.100000)"
fill="#000000" stroke="none">
<path d="M1040 2238 c-163 -12 -328 -94 -448 -223 -148 -157 -223 -382 -193
-575 32 -208 210 -618 472 -1088 149 -267 191 -331 224 -342 54 -18 86 2 135
83 93 154 265 470 350 642 208 422 291 674 275 835 -29 304 -227 552 -514 645
-68 22 -192 32 -301 23z m218 -44 c314 -78 511 -289 553 -594 22 -158 -30
-343 -205 -720 -128 -276 -412 -793 -458 -832 -31 -28 -51 -9 -127 120 -317
539 -543 1033 -582 1275 -28 171 33 373 160 524 85 103 244 195 391 228 41 9
89 22 105 29 21 9 36 10 49 3 11 -5 62 -20 114 -33z"/>
<path d="M978 2095 c-214 -59 -377 -224 -433 -440 -50 -192 12 -391 286 -930
127 -249 231 -440 256 -467 23 -25 52 -22 78 8 30 35 149 250 260 469 194 385
285 620 293 761 15 269 -178 527 -448 599 -67 18 -227 18 -292 0z m285 -40
c97 -25 176 -72 252 -149 152 -154 199 -336 139 -542 -55 -190 -221 -548 -424
-914 -56 -102 -103 -186 -104 -187 -5 -6 -226 405 -316 587 -216 440 -270 632
-225 803 49 188 211 351 398 402 69 18 209 19 280 0z"/>
<path d="M1020 1922 c-219 -57 -352 -271 -306 -491 69 -328 470 -448 707 -212
163 164 167 419 8 586 -59 62 -145 109 -228 125 -72 13 -104 12 -181 -8z m272
-66 c71 -34 140 -103 176 -175 24 -51 27 -66 27 -166 0 -92 -4 -118 -22 -158
-30 -65 -112 -148 -180 -183 -54 -27 -66 -29 -168 -29 -101 0 -114 2 -167 29
-299 151 -277 587 35 698 80 28 223 21 299 -16z"/>
<path d="M1002 1769 c-61 -30 -102 -71 -138 -139 -28 -53 -26 -181 4 -237 73
-139 236 -201 367 -139 28 13 71 45 96 73 211 226 -52 581 -329 442z m223 -30
c192 -90 191 -355 0 -445 -96 -45 -192 -27 -270 51 -96 96 -102 229 -13 329
73 84 187 110 283 65z"/>
</g>
</svg>
