<?xml version="1.0" standalone="no"?>
<!DOCTYPE svg PUBLIC "-//W3C//DTD SVG 20010904//EN"
 "http://www.w3.org/TR/2001/REC-SVG-20010904/DTD/svg10.dtd">
<svg version="1.0" xmlns="http://www.w3.org/2000/svg"
 width="1024.000000pt" height="1024.000000pt" viewBox="0 0 1024.000000 1024.000000"
 preserveAspectRatio="xMidYMid meet">

<g transform="translate(0.000000,1024.000000) scale(0.100000,-0.100000)"
fill="#000000" stroke="none">
<path d="M0 5120 l0 -5120 5120 0 5120 0 0 5120 0 5120 -5120 0 -5120 0 0
-5120z m5401 3429 c330 -26 686 -100 954 -199 420 -155 753 -346 1129 -646
l132 -105 355 -2 354 -2 3 -581 2 -582 -40 -16 c-22 -9 -40 -22 -40 -29 0 -8
18 -58 40 -112 41 -101 97 -273 124 -380 23 -93 64 -330 76 -437 13 -122 13
-496 0 -648 -55 -651 -265 -1224 -627 -1707 -30 -40 -55 -73 -57 -73 -1 0 -26
7 -55 16 -29 8 -56 14 -60 12 -5 -2 -46 -50 -92 -108 -46 -58 -123 -147 -172
-197 l-90 -93 -115 0 -114 0 -82 -77 c-142 -134 -429 -336 -646 -455 -36 -20
-187 -99 -337 -177 -245 -127 -443 -241 -653 -376 -123 -79 -253 -155 -267
-155 -13 0 -252 141 -398 235 -142 91 -335 199 -580 325 -132 67 -285 150
-340 183 -202 121 -484 324 -607 437 l-66 60 -114 0 -115 0 -54 58 c-49 51
-198 221 -271 310 -31 37 -38 38 -95 13 l-41 -19 -90 121 c-160 217 -263 400
-371 660 -109 264 -200 640 -230 962 -15 146 -15 509 -1 665 25 283 109 636
210 879 16 41 30 78 30 83 0 4 -16 16 -35 25 l-35 17 0 583 0 583 356 0 356
-1 28 23 c226 184 296 238 406 310 194 128 253 162 439 253 414 202 900 335
1345 368 109 8 428 6 551 -4z"/>
<path d="M4815 8390 c-233 -21 -513 -77 -730 -147 -528 -170 -888 -370 -1313
-730 l-74 -63 -319 0 -319 0 0 -470 0 -470 60 -30 60 -30 -16 -38 c-135 -307
-207 -553 -261 -902 -15 -94 -18 -175 -17 -445 0 -369 11 -471 78 -748 99
-408 213 -676 413 -974 42 -62 83 -119 93 -128 15 -13 38 7 262 233 l245 247
38 -53 37 -54 -23 -26 c-13 -15 -106 -111 -208 -214 -171 -173 -184 -188 -170
-205 115 -138 259 -300 290 -326 l39 -34 85 19 86 20 85 -79 c273 -250 494
-395 996 -655 254 -131 361 -193 733 -425 l160 -99 75 48 c338 218 510 320
730 434 594 306 729 392 1022 653 l137 121 87 -19 87 -19 97 101 c107 114 159
171 212 236 l36 45 -209 210 c-115 115 -209 214 -209 219 0 5 17 31 39 58 l38
48 38 -42 c20 -23 131 -137 246 -253 l210 -211 80 115 c284 407 459 909 510
1464 18 194 7 626 -21 803 -38 250 -91 440 -192 699 -39 99 -67 181 -62 183 5
2 32 16 59 31 l50 27 -3 380 c-1 209 -3 419 -2 468 l0 87 -317 0 -318 0 -75
66 c-117 103 -223 184 -375 286 -472 316 -951 495 -1535 574 -142 19 -598 28
-745 14z m610 -220 c534 -50 1057 -233 1495 -523 114 -75 139 -94 274 -201
l88 -71 -63 -5 c-64 -5 -64 -5 -67 -37 -2 -18 -6 -33 -10 -33 -4 0 -66 41
-136 90 l-129 90 -198 0 -197 0 -88 -116 -89 -115 -6 63 c-4 35 -22 104 -40
153 l-34 90 -62 3 -62 3 -24 -48 c-54 -106 -57 -131 -57 -492 l0 -336 -97 -92
-98 -92 -73 -1 c-81 0 -84 6 -19 47 22 14 76 61 119 104 l78 78 0 246 0 246
-45 19 -46 20 21 39 c11 23 20 60 20 85 0 37 -7 54 -47 106 -86 113 -93 124
-88 140 3 10 -22 42 -70 90 -70 70 -76 73 -100 62 -39 -18 -53 -15 -89 21
-127 128 -586 128 -734 1 -37 -31 -48 -35 -85 -32 -40 3 -47 -1 -115 -62 -54
-48 -72 -70 -68 -84 3 -13 -8 -34 -34 -64 -60 -67 -111 -148 -116 -185 -5 -25
1 -41 25 -75 28 -38 30 -43 14 -48 -10 -3 -30 -10 -45 -16 l-28 -10 0 -238 0
-238 88 -89 c48 -48 108 -105 132 -125 l45 -37 -71 -1 -72 0 -80 85 -80 84
-81 3 c-87 3 -103 16 -47 36 19 7 46 22 60 33 l26 20 0 304 c0 167 -3 311 -6
320 -14 34 -58 45 -189 45 -132 0 -174 -10 -191 -47 -14 -32 -18 -580 -4 -613
12 -28 49 -52 102 -65 43 -11 45 -60 3 -95 -14 -12 -39 2 -192 106 -97 65
-221 152 -275 192 l-98 72 -140 0 -140 0 0 195 0 195 -62 0 -63 1 45 41 c71
64 276 209 406 288 141 85 378 202 524 258 254 98 605 186 845 212 107 11 516
11 640 0z m-115 -403 l85 -22 3 -37 c2 -21 0 -38 -5 -38 -4 0 -40 9 -78 20
-127 36 -341 25 -467 -25 -15 -6 -18 -1 -18 34 0 40 0 41 53 56 100 28 133 33
237 33 77 1 128 -5 190 -21z m-646 -179 c24 -45 26 -53 13 -63 -8 -6 -42 -47
-75 -92 -68 -91 -72 -95 -92 -83 -19 12 2 54 64 130 44 54 45 57 34 92 -9 29
-8 41 2 53 18 22 22 20 54 -37z m976 27 c10 -12 8 -21 -8 -47 l-21 -32 49 -61
c42 -52 73 -115 57 -115 -2 0 -31 32 -63 71 -33 38 -71 78 -86 87 l-27 17 31
48 c32 49 47 57 68 32z m-380 -75 c136 -30 158 -43 92 -53 -46 -8 -114 -56
-142 -103 -12 -19 -25 -32 -29 -30 -8 5 -9 -1 -17 -104 -7 -92 -14 -116 -24
-75 l-8 30 -2 -35 c-1 -19 -3 -45 -4 -57 -2 -13 1 -23 6 -23 4 0 8 5 8 11 0 6
8 18 17 27 16 16 16 16 10 0 -3 -10 -2 -18 2 -18 5 0 12 -7 15 -16 5 -14 4
-15 -9 -4 -12 10 -15 10 -15 -3 0 -20 31 -51 39 -39 3 5 14 -1 24 -14 14 -19
15 -22 2 -18 -8 3 -15 1 -15 -5 0 -6 -5 -11 -11 -11 -6 0 -9 7 -6 15 4 8 2 17
-3 20 -6 4 -10 -1 -10 -9 0 -20 -8 -24 -66 -31 -61 -7 -96 13 -73 42 9 11 10
14 2 9 -15 -9 -17 6 -3 20 5 5 16 27 25 49 l15 40 -5 -35 c-3 -22 -2 -31 4
-25 6 6 12 39 14 75 3 41 2 51 -2 25 -6 -36 -8 -32 -14 40 -10 110 -10 114
-19 109 -4 -3 -14 8 -22 24 -8 15 -35 47 -59 69 -25 23 -42 44 -39 48 4 3 -1
3 -11 -1 -22 -8 -73 4 -61 15 12 11 100 39 139 44 61 8 211 6 255 -3z m931
-102 l19 -38 -50 0 c-28 0 -50 5 -50 10 0 6 9 29 21 52 23 45 23 45 60 -24z
m-1311 -58 c45 -23 75 -56 95 -102 38 -93 -1 -159 -113 -193 -22 -6 -23 -5
-20 37 l3 43 48 3 47 3 0 45 0 44 -50 0 -50 0 0 45 0 45 -40 0 -40 0 0 -50 0
-50 -45 0 -45 0 0 -39 c0 -42 11 -51 61 -51 27 0 29 -3 29 -36 l0 -35 -55 31
c-30 17 -55 28 -55 23 0 -4 -7 1 -15 11 -26 34 -19 107 15 158 37 56 50 67 97
83 43 15 82 10 133 -15z m654 -8 c69 -48 80 -70 78 -164 l-2 -83 -51 -47 -50
-47 -57 7 c-53 7 -58 10 -75 44 -13 26 -27 39 -47 43 -42 9 -80 58 -80 102 0
43 39 114 78 142 66 47 141 48 206 3z m-1498 -62 l84 0 0 -55 0 -55 -50 0 -50
0 0 -54 c0 -29 -3 -80 -6 -114 -6 -53 -10 -61 -30 -65 -13 -2 -25 1 -28 7 -5
12 -6 -2 -9 -88 -1 -37 -7 -61 -14 -63 -10 -4 -13 50 -13 247 0 226 2 252 16
246 9 -3 54 -6 100 -6z m2149 -363 c0 -199 -3 -363 -7 -364 -5 -2 -18 -3 -30
-3 l-23 0 -3 365 -4 365 34 0 33 0 0 -363z m744 329 c5 -13 22 -33 38 -44 l28
-21 -23 -8 c-12 -5 -31 -21 -41 -36 l-18 -28 -43 41 c-23 22 -41 42 -39 44 2
2 14 9 27 15 12 6 22 20 22 30 0 38 36 43 49 7z m-4348 -38 c-2 -29 -6 -47 -8
-40 -3 9 -39 12 -129 12 -68 0 -124 -3 -124 -7 0 -5 53 -8 117 -7 l118 0 -107
-3 c-87 -3 -108 -7 -108 -18 0 -8 -4 -15 -10 -15 -6 0 -10 -30 -10 -70 l0 -70
-40 0 -40 0 0 135 0 135 173 0 172 0 -4 -52z m5419 -83 l0 -135 -41 0 c-24 0
-38 4 -34 10 3 6 1 10 -4 10 -7 0 -11 29 -10 78 0 52 3 71 9 57 7 -17 9 -15 9
13 l1 32 -126 0 c-109 0 -129 -2 -140 -17 -12 -16 -13 -11 -14 35 l0 52 175 0
175 0 0 -135z m-1354 91 c39 -39 46 -89 18 -131 -20 -31 -73 -49 -105 -36 -80
32 -104 112 -50 170 41 44 91 43 137 -3z m-2116 -91 c0 -62 -4 -82 -26 -121
-25 -45 -26 -52 -22 -166 2 -65 1 -118 -2 -118 -3 0 -16 7 -28 16 -21 15 -22
20 -22 194 l0 180 43 44 c23 24 45 45 50 45 4 1 7 -33 7 -74z m1234 14 l36
-21 0 -79 c0 -43 -2 -79 -6 -79 -10 0 -65 127 -71 164 -3 20 -3 36 0 36 3 0
22 -9 41 -21z m2010 -149 c0 -47 -1 -107 -2 -133 -2 -51 -1 -51 -52 -5 -18 16
-19 15 -23 -15 -2 -18 -5 14 -5 71 l-2 102 -100 0 c-90 0 -100 2 -110 20 -6
11 -15 18 -21 15 -5 -4 -9 1 -9 9 0 13 22 16 138 19 75 2 148 3 162 3 25 -1
25 -2 24 -86z m-4944 55 l0 -25 -150 0 -150 0 0 -105 0 -105 -30 0 -30 0 0
130 0 130 180 0 180 0 0 -25z m1978 -2 c-10 -2 -26 -2 -35 0 -10 3 -2 5 17 5
19 0 27 -2 18 -5z m1661 -35 c70 -59 170 -58 237 4 29 26 137 23 142 -4 2 -10
-3 -18 -10 -18 -7 0 -35 -15 -61 -34 -33 -24 -57 -33 -75 -31 -15 2 -111 4
-214 4 l-188 1 0 56 0 56 68 -4 c57 -3 74 -8 101 -30z m-1947 -20 c-7 -7 -12
-8 -12 -2 0 14 12 26 19 19 2 -3 -1 -11 -7 -17z m504 13 c-9 -14 4 -41 20 -41
30 0 12 -27 -25 -39 -78 -23 -179 -139 -182 -210 -2 -24 -2 -24 -6 -3 -6 30
-23 28 -23 -3 0 -14 -5 -25 -11 -25 -6 0 -8 -7 -5 -17 8 -20 -30 -63 -56 -63
-19 0 -25 -24 -9 -34 5 -3 14 -20 20 -36 6 -18 6 -28 1 -25 -6 3 -7 -1 -4 -9
4 -10 19 -16 42 -16 45 0 39 -5 -15 -14 -42 -6 -43 -6 -93 54 l-50 61 0 206
c0 195 1 205 18 191 34 -31 105 -60 158 -65 47 -5 63 -2 117 25 35 17 72 41
82 52 19 21 30 27 21 11z m-2683 -117 c37 -7 37 -7 37 -55 l0 -49 -45 0 -45 0
0 -44 c0 -54 -18 -106 -36 -106 -11 0 -14 25 -14 130 l0 130 33 0 c17 0 49 -3
70 -6z m5657 -129 c0 -124 -1 -135 -18 -135 -11 0 -19 7 -19 18 1 9 0 52 -1
94 l-2 77 -37 3 c-24 2 -37 8 -35 16 1 6 -5 12 -13 12 -9 0 -15 9 -15 25 0 24
2 25 70 25 l70 0 0 -135z m-2800 70 c48 -25 100 -102 100 -150 0 -22 -24 -19
-46 6 -10 12 -31 27 -46 35 l-28 15 0 -39 c0 -48 -16 -70 -58 -78 -29 -6 -36
-2 -70 35 l-38 42 -12 -26 c-17 -37 -56 -31 -60 8 -4 36 33 113 64 134 63 41
135 47 194 18z m2530 -5 c0 -5 -4 -10 -10 -10 -5 0 -10 5 -10 10 0 6 5 10 10
10 6 0 10 -4 10 -10z m-4370 -32 c0 -7 21 -26 47 -43 26 -16 125 -85 220 -153
164 -116 206 -154 148 -132 -31 12 -226 128 -320 190 -38 26 -75 49 -80 52 -7
4 -9 -35 -7 -110 2 -65 -2 -362 -8 -662 -6 -300 -13 -684 -16 -855 -3 -170 -7
-314 -9 -320 -2 -5 -4 161 -6 370 -1 209 -5 650 -8 980 l-6 600 -58 -1 c-44
-1 -66 -7 -89 -24 -30 -22 -35 -22 -227 -18 l-197 3 4 -220 c2 -121 2 -218 -1
-215 -2 3 -7 108 -10 233 -4 230 -9 256 -41 244 -14 -6 -16 -95 -16 -872 0
-476 -4 -865 -8 -865 -8 0 -22 48 -43 149 -8 37 -14 49 -20 40 -5 -8 -9 337
-9 814 l0 827 380 0 c297 0 380 -3 380 -12z m3458 -150 c0 -35 -3 -48 -5 -30
-2 17 -6 32 -8 32 -3 0 -35 -20 -72 -43 -131 -84 -277 -156 -290 -144 -9 9
352 247 374 247 2 0 2 -28 1 -62z m740 -90 l3 -138 -321 0 -320 0 0 139 0 140
318 -2 317 -2 3 -137z m-2562 -30 l29 -33 -32 29 c-31 28 -38 36 -30 36 2 0
16 -15 33 -32z m258 1 c-10 -11 -28 -25 -39 -31 -11 -6 -4 4 15 20 41 36 51
41 24 11z m-2144 -113 l0 -83 -110 -8 c-60 -3 -114 -4 -120 0 -5 3 -10 43 -10
91 l0 84 120 0 120 0 0 -84z m1999 63 l56 -8 -58 3 c-32 1 -63 9 -70 16 -10
10 -9 11 2 5 8 -4 39 -12 70 -16z m-2322 -166 c-2 -16 -4 -5 -4 22 0 28 2 40
4 28 2 -13 2 -35 0 -50z m4020 25 c-3 -8 -6 -5 -6 6 -1 11 2 17 5 13 3 -3 4
-12 1 -19z m693 -24 c32 -29 40 -43 40 -71 0 -30 -3 -34 -21 -28 -11 4 -35 23
-54 43 l-33 37 -204 -3 -203 -2 -42 -48 c-35 -38 -43 -54 -43 -86 0 -58 -7
-40 -14 40 -7 68 -6 73 20 104 15 17 37 36 48 40 12 5 121 9 243 9 l223 1 40
-36z m-830 -899 l0 -915 -34 0 c-34 0 -34 0 -44 63 -7 41 -10 337 -9 879 l2
818 -82 0 c-45 0 -85 -4 -88 -10 -3 -5 2 -10 12 -11 16 -1 -33 -18 -112 -38
l-30 -8 30 -7 c17 -4 35 -9 40 -11 6 -1 -567 -3 -1273 -4 l-1282 -2 -33 24
c-17 14 -42 30 -55 36 l-22 12 1 -778 1 -778 1369 3 c1260 2 1390 0 1367 -20
-2 -1 -151 -5 -333 -8 l-330 -5 3 -40 c2 -22 6 -48 9 -59 4 -14 2 -16 -8 -11
-8 5 -6 -1 4 -12 9 -11 17 -23 17 -26 0 -4 -83 -7 -184 -7 l-185 0 -37 -70
-38 -70 -226 0 -226 0 -34 70 -34 70 -461 0 -462 0 -104 80 -104 80 -3 -63
c-3 -73 -24 -96 -84 -97 l-38 0 0 915 0 915 1550 0 1550 0 0 -915z m1170 705
l-6 -185 -2 200 c-1 110 2 193 6 185 4 -8 5 -98 2 -200z m-5432 93 l-2 -108
-5 90 c-6 84 -4 125 5 125 2 0 3 -48 2 -107z m4399 75 c-3 -8 -6 -5 -6 6 -1
11 2 17 5 13 3 -3 4 -12 1 -19z m-3847 -78 c0 -11 -6 -20 -14 -20 -17 0 -28
-110 -26 -262 2 -93 0 -108 -14 -108 -13 0 -16 -14 -18 -82 l-1 -83 -7 95 c-4
52 -8 182 -9 288 l-1 192 45 0 c38 0 45 -3 45 -20z m160 5 c0 -8 -7 -15 -15
-15 -11 0 -15 -12 -16 -42 -1 -81 -12 -123 -35 -126 -19 -3 -21 3 -23 98 l-2
100 45 0 c34 0 46 -4 46 -15z m4763 -45 c-3 -12 -8 -19 -11 -16 -5 6 5 36 12
36 2 0 2 -9 -1 -20z m-572 -33 c23 -9 41 -27 52 -50 30 -63 19 -71 -54 -37
-76 34 -140 22 -221 -42 -29 -23 -38 -26 -31 -12 6 10 13 39 16 63 4 29 15 53
34 73 27 29 30 30 99 25 38 -3 86 -12 105 -20z m-4564 -34 c-3 -10 -5 -4 -5
12 0 17 2 24 5 18 2 -7 2 -21 0 -30z m4260 15 c-3 -8 -6 -5 -6 6 -1 11 2 17 5
13 3 -3 4 -12 1 -19z m937 -47 c-6 -7 -11 2 -17 34 l-6 30 13 -30 c8 -16 12
-32 10 -34z m-1008 -1 c-4 -26 -1 -30 17 -30 16 0 18 3 8 9 -8 5 -9 11 -3 15
11 7 24 -18 15 -28 -4 -3 -17 -6 -30 -6 -20 0 -23 5 -23 35 0 19 5 35 11 35 6
0 8 -13 5 -30z m64 20 c0 -5 -7 -7 -15 -4 -8 4 -15 8 -15 10 0 2 7 4 15 4 8 0
15 -4 15 -10z m-4253 -132 c-2 -24 -4 -7 -4 37 0 44 2 63 4 43 2 -21 2 -57 0
-80z m3680 4 c0 -77 -1 -80 -6 -32 -4 34 -9 47 -12 35 -3 -11 -4 0 -1 24 l5
44 -92 -5 c-50 -2 -91 -1 -91 4 0 4 -5 8 -11 8 -5 0 -7 -4 -4 -10 3 -5 0 -7
-8 -4 -21 8 -230 -127 -217 -140 5 -5 10 -14 10 -20 0 -5 -6 -2 -13 8 -13 17
-16 17 -60 -11 -26 -16 -45 -31 -43 -34 3 -3 -3 -5 -12 -5 -16 0 -17 11 -14
103 2 57 0 103 -4 103 -5 0 -8 -21 -7 -47 1 -27 0 -40 -3 -30 -6 20 -34 23
-34 3 0 -18 -81 -91 -89 -80 -3 5 -49 24 -101 41 -52 18 -142 53 -200 78
l-105 44 275 3 c151 2 402 4 556 5 l281 2 0 -87z m-1590 43 c-43 -20 -83 -32
-89 -29 -6 4 -8 2 -5 -3 4 -6 -5 -16 -21 -21 -15 -6 -60 -24 -101 -41 -78 -33
-101 -38 -101 -20 0 5 4 8 9 5 5 -4 20 -2 33 3 15 7 18 10 6 10 -12 1 -15 8
-12 31 6 34 -8 44 -53 37 -27 -4 -27 -5 -5 -12 44 -15 23 -28 -35 -22 -54 6
-59 5 -69 -18 -9 -19 -9 -25 4 -30 8 -3 12 -8 9 -11 -3 -3 -48 24 -100 60 -53
36 -100 66 -106 66 -7 0 -12 -50 -14 -137 l-3 -138 -2 142 c-2 140 -2 142 21
146 12 2 -29 5 -90 6 l-113 1 0 -125 c0 -118 -1 -125 -20 -125 -13 0 -20 -7
-20 -20 0 -13 -7 -20 -19 -20 -11 0 -22 -6 -25 -12 -3 -7 -3 -1 0 15 4 16 2
27 -4 27 -6 0 -12 -21 -14 -47 -2 -25 -8 -48 -14 -50 -16 -5 -28 48 -13 57 6
4 8 13 4 20 -6 10 -9 10 -15 0 -4 -7 -13 16 -19 54 -7 37 -9 72 -5 78 4 7 3 8
-4 4 -9 -5 -12 15 -12 73 l0 81 548 0 547 -1 -78 -34z m1368 -13 c0 -20 -18
-18 -21 1 -1 10 3 16 9 14 7 -2 12 -9 12 -15z m1075 -17 c85 -44 79 -160 -11
-200 -46 -21 -81 -14 -120 24 -51 52 -50 113 3 163 35 32 81 37 128 13z
m-4490 -304 c-1 -297 -1 -311 20 -360 13 -28 42 -69 66 -91 24 -22 40 -40 35
-40 -23 0 -100 91 -112 130 -8 26 -20 45 -31 48 -17 4 -18 18 -16 176 2 155 2
161 7 66 9 -169 21 -79 21 163 0 119 2 217 5 217 3 0 5 -139 5 -309z m-383
257 c-3 -8 -6 -5 -6 6 -1 11 2 17 5 13 3 -3 4 -12 1 -19z m3046 -155 l97 -46
0 -273 0 -272 -42 -34 c-24 -18 -118 -95 -210 -170 -91 -76 -169 -138 -172
-138 -3 0 -6 51 -6 114 l0 113 58 49 c31 27 83 69 114 94 l57 45 1 123 0 122
-115 0 -115 0 0 -205 c0 -113 -3 -205 -8 -205 -11 0 -194 138 -209 158 -9 10
-13 55 -13 134 l0 118 -100 0 -100 0 0 115 0 114 179 90 c99 50 194 99 211
110 l32 19 121 -64 c67 -35 166 -85 220 -111z m-3062 106 c-5 -13 -10 -19 -10
-12 -1 15 10 45 15 40 3 -2 0 -15 -5 -28z m2046 -4 c-4 -8 -12 -15 -19 -14
-10 0 -10 2 0 6 6 2 12 12 12 21 0 8 3 13 6 9 4 -3 4 -13 1 -22z m1710 -16 c1
-15 -4 -33 -12 -39 -19 -16 -56 -9 -69 13 -9 15 -7 22 12 37 34 28 66 23 69
-11z m-3390 -41 c-2 -13 -4 -3 -4 22 0 25 2 35 4 23 2 -13 2 -33 0 -45z m2981
-698 c2 8 4 44 4 80 0 63 0 64 9 25 5 -22 10 -50 10 -62 -1 -23 17 -29 59 -23
23 3 11 -5 -70 -45 -56 -28 -69 -32 -52 -16 22 22 22 22 24 404 l3 382 5 -380
c3 -209 7 -373 8 -365z m9 693 c-3 -10 -5 -2 -5 17 0 19 2 27 5 18 2 -10 2
-26 0 -35z m669 6 c-9 -19 -15 -29 -16 -22 0 18 20 66 25 61 3 -3 -1 -20 -9
-39z m-4046 -6 c-11 -17 -11 -17 -6 0 3 10 6 24 7 30 0 9 2 9 5 0 3 -7 0 -20
-6 -30z m2027 22 c0 -8 -4 -12 -9 -9 -5 3 -6 10 -3 15 9 13 12 11 12 -6z
m3074 -19 c8 4 9 3 5 -5 -4 -6 -12 -8 -18 -5 -7 4 -8 2 -4 -5 16 -26 -73 -113
-129 -126 -27 -6 -25 -4 16 23 48 31 82 77 95 126 7 29 7 29 15 7 6 -13 13
-19 20 -15z m-3131 -15 c0 -5 -10 -11 -22 -14 -22 -6 -22 -6 -4 8 23 17 26 18
26 6z m2762 -87 c50 -44 44 -54 -9 -15 -39 28 -77 87 -66 104 3 5 12 -5 20
-22 9 -17 33 -47 55 -67z m-1355 39 c-3 -10 -5 -4 -5 12 0 17 2 24 5 18 2 -7
2 -21 0 -30z m-3396 -9 c-5 -16 -10 -21 -10 -12 -1 18 10 51 15 45 2 -1 -1
-16 -5 -33z m4027 -9 c-3 -3 -9 2 -12 12 -6 14 -5 15 5 6 7 -7 10 -15 7 -18z
m-2338 -27 c-1 -28 -2 -30 -11 -15 -6 10 -8 25 -5 33 9 24 16 16 16 -18z m487
-10 c-3 -7 -5 -2 -5 12 0 14 2 19 5 13 2 -7 2 -19 0 -25z m-2190 -10 c-3 -8
-6 -5 -6 6 -1 11 2 17 5 13 3 -3 4 -12 1 -19z m1818 -10 c38 -5 82 -8 97 -6
15 3 26 0 25 -6 -1 -6 4 -10 11 -8 8 1 11 -2 7 -8 -9 -14 17 -80 28 -73 6 3 7
1 3 -5 -3 -6 3 -34 14 -63 12 -28 19 -53 17 -55 -2 -2 -53 18 -113 45 -60 27
-116 51 -125 54 -10 3 -25 30 -34 59 -10 29 -21 57 -26 63 -15 16 -10 28 9 20
9 -4 48 -11 87 -17z m109 13 c-9 -10 -44 -11 -44 -1 0 5 11 9 25 8 13 -1 22
-4 19 -7z m1726 5 c0 -2 -7 -9 -15 -16 -12 -10 -15 -10 -15 4 0 9 7 16 15 16
8 0 15 -2 15 -4z m83 -3 c-7 -2 -19 -2 -25 0 -7 3 -2 5 12 5 14 0 19 -2 13 -5z
m145 0 c-2 -5 -18 -37 -35 -72 -18 -35 -37 -67 -44 -71 -23 -15 8 -19 35 -4
16 7 31 14 33 14 3 0 3 -20 0 -45 -4 -40 -3 -43 9 -28 7 10 14 13 14 7 0 -6
-10 -20 -23 -32 -19 -18 -26 -19 -36 -9 -11 10 -12 8 -6 -12 5 -18 4 -22 -6
-16 -9 6 -11 3 -6 -8 3 -9 3 -16 -1 -14 -4 1 -8 -2 -10 -8 -6 -20 -97 -105
-112 -104 -10 0 -11 2 -2 6 6 2 12 11 12 19 0 9 4 13 8 10 4 -2 14 -1 20 3 8
4 -4 8 -28 9 -36 2 -40 0 -40 -22 0 -14 5 -28 11 -31 12 -8 -28 -55 -45 -54
-6 0 -5 3 2 6 19 7 4 23 -24 23 -17 0 -24 -5 -24 -20 0 -11 -4 -20 -10 -20 -5
0 -10 9 -10 20 0 11 -4 20 -10 20 -6 0 -10 32 -10 75 0 57 3 75 14 75 17 0 29
27 16 35 -6 4 -14 4 -20 0 -5 -3 2 19 16 50 15 32 23 64 20 77 -3 13 -3 16 1
8 4 -10 12 2 23 35 16 49 18 50 66 57 27 4 76 10 108 13 33 2 61 7 64 10 8 8
34 6 30 -2z m22 -19 c0 -8 -5 -12 -10 -9 -6 4 -8 11 -5 16 9 14 15 11 15 -7z
m-1713 -46 c-2 -13 -4 -5 -4 17 -1 22 1 32 4 23 2 -10 2 -28 0 -40z m-2200 10
c-3 -7 -5 -2 -5 12 0 14 2 19 5 13 2 -7 2 -19 0 -25z m1583 -13 c-8 -10 -5
-17 12 -29 27 -19 68 -21 69 -3 0 10 2 10 6 0 2 -7 13 -13 24 -13 16 0 19 -7
19 -40 0 -32 -4 -40 -18 -40 -10 0 -23 -5 -30 -12 -9 -9 -12 -9 -12 0 0 7 -7
12 -15 12 -9 0 -12 -6 -9 -15 4 -8 4 -15 1 -15 -3 0 -19 33 -36 74 -28 68 -33
114 -9 100 5 -3 5 -11 -2 -19z m-1593 -37 c-3 -7 -5 -2 -5 12 0 14 2 19 5 13
2 -7 2 -19 0 -25z m3993 25 c0 -5 -10 -19 -21 -33 l-21 -25 18 33 c18 32 24
38 24 25z m-1783 -120 c-2 -21 -4 -4 -4 37 0 41 2 58 4 38 2 -21 2 -55 0 -75z
m-2220 35 c-3 -7 -5 -2 -5 12 0 14 2 19 5 13 2 -7 2 -19 0 -25z m5790 -30 c-3
-8 -6 -5 -6 6 -1 11 2 17 5 13 3 -3 4 -12 1 -19z m-5799 -29 c-3 -20 -5 -19
-9 9 -3 20 -2 29 4 23 5 -5 7 -19 5 -32z m3602 31 c0 -5 -2 -10 -4 -10 -3 0
-8 5 -11 10 -3 6 -1 10 4 10 6 0 11 -4 11 -10z m-2860 -40 c34 -34 19 -70 -28
-70 -55 0 -80 40 -46 74 21 22 50 20 74 -4z m4917 -2 c-3 -8 -6 -5 -6 6 -1 11
2 17 5 13 3 -3 4 -12 1 -19z m-3973 -9 c-3 -5 2 -22 11 -39 8 -16 13 -30 10
-30 -2 0 -13 17 -24 38 -15 30 -17 39 -6 39 8 0 12 -4 9 -8z m4123 -51 c-2
-13 -4 -5 -4 17 -1 22 1 32 4 23 2 -10 2 -28 0 -40z m-5826 -55 c-6 -48 -11
-118 -11 -155 l0 -68 -77 1 c-55 1 -70 3 -53 9 17 5 19 8 8 9 -24 1 -23 9 12
60 17 25 33 56 37 70 3 14 12 32 20 39 11 11 13 2 13 -57 l0 -71 -35 0 c-19 0
-35 -4 -35 -10 0 -5 18 -10 40 -10 45 0 54 -16 13 -23 -23 -3 -21 -4 10 -6 40
-1 42 1 27 29 -7 13 -7 21 0 25 12 7 10 95 -2 95 -4 0 -8 5 -8 10 0 6 6 10 14
10 9 0 15 21 20 71 4 39 10 69 13 66 2 -3 0 -45 -6 -94z m1809 67 c0 -6 -7
-13 -15 -16 -12 -5 -14 -15 -9 -43 7 -33 6 -35 -9 -22 -10 7 -17 20 -17 27 0
8 -5 14 -11 14 -7 0 -6 -8 3 -22 8 -13 18 -29 22 -36 6 -10 12 -8 26 8 9 11
27 20 39 20 17 0 21 -6 21 -35 0 -31 -3 -35 -27 -36 -16 0 -22 -3 -15 -6 6 -2
10 -8 7 -13 -2 -4 4 -15 15 -25 19 -18 20 -17 21 6 l0 24 10 -23 c13 -34 1
-47 -23 -25 -42 37 -110 143 -114 178 -4 35 -4 35 36 35 22 0 40 -5 40 -10z
m3565 -12 c45 -24 81 -63 104 -113 20 -43 21 -61 21 -405 0 -312 -2 -365 -16
-393 -21 -41 -62 -85 -95 -102 -35 -19 -134 -27 -199 -16 l-55 9 60 2 c72 2
109 14 167 56 59 42 78 84 78 176 -1 54 -3 69 -11 56 -13 -23 -44 -24 -35 -1
4 9 9 43 13 75 l6 58 -43 0 c-42 0 -42 0 -38 32 3 17 -1 64 -7 104 -21 120
-91 209 -205 263 -46 22 -69 26 -140 26 -73 -1 -93 -5 -139 -29 -122 -63 -197
-164 -216 -290 l-8 -48 -39 39 -39 38 3 157 c2 98 -1 156 -7 155 -16 -3 -17
40 -1 72 19 35 72 79 113 91 15 5 179 8 363 7 291 -2 339 -4 365 -19z m312
-40 c-2 -13 -4 -3 -4 22 0 25 2 35 4 23 2 -13 2 -33 0 -45z m-3440 -190 c-1
-46 -3 -11 -3 77 0 88 2 125 3 83 2 -42 2 -114 0 -160z m-1593 176 c21 -8 21
-50 0 -58 -32 -12 -57 27 -32 52 14 14 12 14 32 6z m1400 -71 c32 -29 53 -53
48 -53 -14 0 -132 101 -132 112 0 14 22 -2 84 -59z m-101 -6 c-3 -5 -11 4 -19
18 -19 37 -18 42 5 14 11 -13 17 -28 14 -32z m3751 -33 c6 -102 3 -98 76 -105
l65 -5 -77 -2 -78 -2 0 92 c0 100 9 115 14 22z m133 -56 c-2 -24 -4 -5 -4 42
0 47 2 66 4 43 2 -24 2 -62 0 -85z m-4957 58 c0 -2 -8 -10 -17 -17 -16 -13
-17 -12 -4 4 13 16 21 21 21 13z m-393 -498 c-1 -90 -3 -17 -3 162 0 179 2
252 3 163 2 -90 2 -236 0 -325z m3162 463 c-17 -14 -26 -16 -31 -8 -5 8 -8 7
-8 -4 0 -9 -10 -24 -23 -32 -19 -12 -24 -13 -24 -2 0 8 4 12 8 9 5 -2 15 6 24
20 9 14 22 23 30 20 7 -3 16 -1 20 5 3 6 11 11 17 11 5 0 0 -9 -13 -19z
m-2824 -11 c-3 -5 -12 -10 -18 -10 -7 0 -6 4 3 10 19 12 23 12 15 0z m1084
-44 c-3 -3 -11 5 -18 17 -13 21 -12 21 5 5 10 -10 16 -20 13 -22z m-1572 -78
c-2 -18 -4 -6 -4 27 0 33 2 48 4 33 2 -15 2 -42 0 -60z m1615 59 c3 4 3 3 2
-4 -3 -13 20 -36 28 -28 2 3 5 -2 5 -10 0 -8 -1 -15 -2 -15 0 0 -17 17 -36 37
-18 20 -27 32 -17 25 9 -7 18 -9 20 -5z m-262 -48 c0 -10 -7 -19 -15 -19 -15
0 -21 31 -9 43 11 10 24 -3 24 -24z m3371 17 c73 -31 130 -101 144 -178 l7
-38 -40 0 c-34 0 -41 -4 -45 -22 -2 -13 -5 -4 -6 19 -4 136 -208 179 -260 56
-7 -15 -33 -43 -59 -60 l-47 -33 -3 38 c-8 82 51 176 133 213 48 22 130 24
176 5z m-3021 -30 c0 -20 -17 -29 -26 -15 -4 8 -3 9 4 5 7 -4 12 -3 12 3 0 5
-6 12 -12 14 -8 3 -6 6 5 6 9 1 17 -5 17 -13z m25 -25 c-6 -11 13 -25 35 -26
8 0 14 -5 13 -12 -4 -16 34 -36 50 -27 6 4 9 4 5 -1 -4 -4 0 -14 10 -22 9 -8
-3 -4 -28 9 -25 14 -44 30 -42 37 1 6 -3 11 -10 9 -19 -3 -60 21 -53 33 4 5
11 9 16 9 6 0 8 -4 4 -9z m-244 -31 c41 -23 13 -97 -31 -82 -33 11 -41 64 -12
81 21 13 20 13 43 1z m2080 0 c30 -17 26 -67 -7 -82 -23 -11 -29 -10 -45 10
-19 24 -16 49 9 70 19 15 19 15 43 2z m-3213 -12 c26 -26 2 -75 -31 -62 -22 8
-29 32 -17 55 12 22 30 25 48 7z m110 0 c28 -28 -3 -83 -33 -58 -8 7 -15 20
-15 29 0 17 18 41 30 41 3 0 11 -5 18 -12z m4222 -68 c17 -17 18 -24 10 -41
-9 -16 -19 -20 -48 -17 -28 2 -38 -1 -40 -14 -2 -12 5 -19 25 -24 45 -10 50
-12 22 -13 -31 -1 -65 25 -74 56 -4 17 1 30 19 48 30 30 59 32 86 5z m-2765
-11 c22 -10 29 -16 15 -13 -28 7 -80 33 -65 33 6 0 28 -9 50 -20z m115 -30
c-11 -8 -7 -9 15 -5 24 5 27 4 12 -5 -10 -6 -31 -7 -49 -4 -32 8 -25 19 14 22
18 2 20 0 8 -8z m126 -38 c3 0 8 -2 12 -5 3 -3 -4 -6 -16 -6 -14 0 -22 6 -23
18 0 10 -3 12 -6 5 -8 -22 -18 -14 -18 13 l0 25 22 -26 c12 -14 25 -25 29 -24z
m-636 24 c0 -8 -7 -15 -15 -15 -16 0 -20 12 -8 23 11 12 23 8 23 -8z m1990 0
c0 -8 -7 -15 -15 -15 -8 0 -15 7 -15 15 0 8 7 15 15 15 8 0 15 -7 15 -15z
m1183 -30 c-3 -9 -8 -14 -10 -11 -3 3 -2 9 2 15 9 16 15 13 8 -4z m107 -42 c0
-44 -108 -101 -165 -87 -39 10 -37 20 3 16 44 -3 96 25 120 67 16 29 42 31 42
4z m-4447 -145 c15 -23 1 -48 -27 -48 -33 0 -46 38 -20 57 21 15 34 13 47 -9z
m107 7 c19 -23 8 -50 -20 -50 -16 0 -26 6 -28 18 -4 18 14 47 28 47 4 0 13 -7
20 -15z m-413 -222 c-2 -38 -3 -7 -3 67 0 74 1 105 3 68 2 -38 2 -98 0 -135z
m3849 154 c21 -19 26 -29 20 -50 -13 -53 -80 -60 -112 -13 -18 29 -6 62 29 76
32 13 33 12 63 -13z m-2442 -303 c19 -18 21 -65 4 -82 -31 -31 -98 -3 -98 40
0 49 61 76 94 42z m2165 2 c7 -8 11 -30 9 -48 -6 -65 -98 -58 -98 8 0 45 62
73 89 40z m-1515 -31 l-6 -25 113 0 114 0 0 -25 0 -25 -328 0 c-260 0 -327 3
-321 13 4 6 18 29 31 50 l23 37 190 0 190 0 -6 -25z m1197 -27 l31 -43 -42 -3
c-35 -3 -52 3 -96 32 -53 35 -55 36 -156 36 -57 0 -110 5 -118 10 -10 6 46 10
167 10 l183 0 31 -42z m-2256 -19 c3 -3 -15 -20 -40 -38 -53 -38 -119 -116
-110 -131 3 -5 19 -10 35 -10 22 0 42 14 87 61 91 95 144 112 202 63 45 -38
41 -54 -14 -54 -52 0 -100 -18 -148 -54 -19 -15 -42 -26 -53 -27 -10 0 -28 -5
-39 -10 -15 -7 -10 -8 22 -6 23 1 39 -1 37 -5 -7 -11 -61 -10 -109 3 -22 5
-48 11 -57 14 -12 3 -21 -8 -32 -42 -22 -63 -20 -105 5 -137 27 -35 9 -33 -29
2 -44 41 -48 71 -22 150 40 119 106 202 178 222 29 8 78 7 87 -1z m2997 -3
c52 -9 122 -80 159 -161 60 -134 45 -210 -17 -83 -20 41 -33 60 -30 43 6 -28
5 -29 -6 -8 -10 17 -17 19 -30 12 -23 -13 -114 -13 -158 0 -49 15 -52 14 -39
-11 7 -14 7 -19 1 -13 -6 6 -12 17 -14 24 -2 8 -16 26 -31 39 -19 17 -25 27
-17 32 8 5 7 9 -5 13 -11 5 -14 3 -9 -5 5 -8 2 -9 -10 -5 -10 4 -25 7 -34 8
-14 0 -13 2 3 9 15 7 10 9 -23 9 -30 1 -42 5 -40 14 7 20 69 57 98 57 37 0
109 -49 154 -104 32 -38 44 -46 72 -46 51 0 43 21 -39 105 -68 68 -77 89 -37
80 8 -2 32 -6 52 -9z m-3761 -98 c24 -60 138 -258 214 -371 157 -238 449 -583
481 -570 8 3 22 -1 32 -8 9 -7 -40 46 -110 118 -71 72 -128 135 -128 140 0 9
122 73 139 73 5 0 128 -116 273 -259 310 -304 478 -457 763 -692 203 -168 541
-419 564 -419 26 0 364 258 596 454 329 279 458 397 707 648 l267 269 70 -36
c39 -19 71 -39 71 -44 0 -5 -44 -58 -97 -116 -54 -59 -106 -118 -116 -130 -34
-44 20 -17 84 43 186 172 479 586 610 859 l34 73 62 0 63 0 -10 -25 c-36 -96
-160 -307 -244 -418 -34 -45 -77 -104 -96 -132 -88 -132 -319 -386 -498 -548
-244 -221 -680 -556 -970 -744 -81 -52 -234 -153 -340 -225 -107 -71 -199
-127 -206 -125 -29 12 -695 461 -831 561 -406 300 -543 410 -737 593 -192 180
-273 270 -431 482 -159 214 -329 483 -352 559 -6 21 -4 22 58 22 63 0 65 -1
78 -32z m2988 -55 l264 -6 114 -233 c62 -128 113 -234 113 -236 0 -1 -565 -4
-1255 -5 -690 -1 -1255 -1 -1255 1 0 8 69 163 123 276 30 63 64 136 75 163
l21 47 768 0 c422 0 887 -3 1032 -7z m541 -25 c38 -20 51 -36 95 -118 67 -125
114 -152 202 -115 50 21 52 12 2 -10 -55 -25 -131 -25 -166 1 -14 11 -49 58
-77 104 -40 66 -61 90 -93 108 -80 44 -45 71 37 30z m180 -143 c13 -14 21 -25
18 -25 -2 0 -15 11 -28 25 -13 14 -21 25 -18 25 2 0 15 -11 28 -25z m1284
-361 c9 -8 16 -22 16 -29 0 -13 -26 -45 -36 -45 -19 0 -44 24 -44 43 0 43 35
60 64 31z m-5487 -10 c9 -24 -10 -49 -38 -49 -24 0 -36 23 -25 51 7 19 55 18
63 -2z m63 -133 c0 -28 -28 -47 -48 -34 -24 15 -27 44 -7 59 22 17 55 1 55
-25z m5365 8 c14 -42 -45 -66 -61 -24 -10 25 4 45 30 45 16 0 27 -7 31 -21z
m-2643 -38 c137 -23 268 -121 328 -246 60 -124 53 -294 -17 -414 -84 -144
-219 -223 -383 -222 -180 0 -326 94 -403 259 -27 57 -32 81 -35 162 -3 78 0
106 18 159 52 155 157 254 313 296 63 17 103 18 179 6z m-2126 -101 c18 -44
71 -96 109 -106 34 -8 31 -21 -5 -29 -41 -9 -89 -51 -108 -95 l-15 -35 -8 30
c-11 40 -65 91 -109 103 l-35 9 35 19 c53 29 99 79 106 113 4 17 8 31 10 31 2
0 11 -18 20 -40z m4165 -42 c11 -14 42 -38 71 -52 40 -20 47 -27 32 -31 -71
-22 -133 -82 -135 -130 0 -12 -9 0 -23 30 -23 52 -54 79 -100 91 -34 8 -33 19
3 34 39 16 76 57 97 105 l17 40 10 -30 c5 -16 18 -42 28 -57z m-2902 47 c16
-8 34 -28 41 -45 11 -28 11 -34 -7 -58 -27 -36 -72 -41 -106 -10 -41 37 -43
63 -8 98 34 34 41 36 80 15z m1674 -17 c27 -32 22 -72 -14 -102 -38 -33 -73
-33 -104 -1 -28 27 -31 49 -11 84 29 52 93 62 129 19z m-1501 -285 c10 -9 18
-27 18 -40 0 -28 -33 -63 -60 -63 -11 0 -29 9 -40 20 -11 11 -20 29 -20 40 0
26 34 60 62 60 12 0 30 -7 40 -17z m1328 -3 c32 -32 24 -75 -16 -91 -57 -21
-103 35 -70 86 20 31 58 33 86 5z"/>
<path d="M5984 7726 c-7 -19 21 -72 42 -80 10 -4 23 2 35 16 25 31 24 43 -6
62 -30 20 -64 21 -71 2z"/>
<path d="M3872 7608 c-17 -17 -15 -44 4 -73 39 -59 95 -1 68 69 -7 19 -55 21
-72 4z"/>
<path d="M3696 7414 c-20 -20 -20 -48 -1 -64 12 -10 20 -9 40 4 27 18 32 45
13 64 -16 16 -33 15 -52 -4z"/>
<path d="M5098 7533 c7 -3 16 -2 19 1 4 3 -2 6 -13 5 -11 0 -14 -3 -6 -6z"/>
<path d="M5025 7523 c-31 -7 -40 -21 -11 -16 15 3 29 9 32 14 3 5 4 8 2 8 -2
-1 -12 -3 -23 -6z"/>
<path d="M4960 7466 c0 -2 7 -9 15 -16 13 -11 14 -10 9 4 -5 14 -24 23 -24 12z"/>
<path d="M5083 7082 c-13 -2 -23 -8 -23 -13 0 -6 4 -8 9 -5 5 3 8 -2 7 -11 0
-10 7 -17 22 -18 17 -1 22 4 22 21 0 27 -7 31 -37 26z"/>
<path d="M5140 7050 c0 -5 7 -10 16 -10 8 0 12 5 9 10 -3 6 -10 10 -16 10 -5
0 -9 -4 -9 -10z"/>
<path d="M5400 7300 l0 -50 -51 0 -50 0 4 -42 4 -43 46 -3 c45 -3 46 -4 49
-40 3 -34 6 -37 36 -40 31 -3 32 -2 32 37 l0 40 48 3 47 3 3 42 3 42 -48 3
-48 3 -3 48 c-3 46 -4 47 -38 47 l-34 0 0 -50z"/>
<path d="M7700 7013 c0 -22 2 -25 10 -13 13 20 13 40 0 40 -5 0 -10 -12 -10
-27z"/>
<path d="M4983 6975 c0 -8 4 -12 9 -9 4 3 8 9 8 15 0 5 -4 9 -8 9 -5 0 -9 -7
-9 -15z"/>
<path d="M4690 6791 c0 -167 1 -173 25 -209 14 -20 25 -32 25 -26 0 6 -8 22
-18 35 -16 21 -19 46 -20 193 -1 93 -4 171 -7 174 -3 3 -5 -72 -5 -167z"/>
<path d="M6970 6570 l0 -100 268 2 267 3 3 98 3 97 -271 0 -270 0 0 -100z
m471 10 c-2 -8 -3 -23 -3 -32 1 -17 -15 -18 -202 -18 l-203 0 -1 35 -1 35 207
-2 c178 -3 206 -5 203 -18z"/>
<path d="M5066 4599 c-75 -89 33 -192 115 -110 17 18 29 40 29 56 0 16 -12 38
-29 56 -40 40 -81 39 -115 -2z"/>
<path d="M3652 4570 c0 -14 2 -19 5 -12 2 6 2 18 0 25 -3 6 -5 1 -5 -13z"/>
<path d="M4468 6043 c12 -2 30 -2 40 0 9 3 -1 5 -23 4 -22 0 -30 -2 -17 -4z"/>
<path d="M4235 6030 c3 -5 10 -10 16 -10 5 0 9 5 9 10 0 6 -7 10 -16 10 -8 0
-12 -4 -9 -10z"/>
<path d="M4305 5991 c-6 -10 46 -51 65 -51 7 0 10 7 6 16 -3 9 -6 22 -6 30 0
16 -55 20 -65 5z"/>
<path d="M4585 5951 c-3 -5 0 -13 6 -17 6 -3 15 -1 19 6 4 7 12 10 18 6 6 -3
13 -3 16 2 2 4 -8 9 -24 10 -16 1 -31 -2 -35 -7z"/>
<path d="M3850 5820 c0 -11 5 -20 10 -20 6 0 10 9 10 20 0 11 -4 20 -10 20 -5
0 -10 -9 -10 -20z"/>
<path d="M7177 5945 c-36 -37 -43 -73 -19 -104 34 -47 117 -38 141 16 18 39
13 70 -15 92 -36 28 -76 27 -107 -4z"/>
<path d="M2760 5446 c0 -33 3 -57 6 -53 10 9 11 85 2 99 -4 8 -8 -13 -8 -46z"/>
<path d="M5003 5692 l-113 -76 0 -48 0 -48 115 0 115 0 0 125 c0 69 -1 125 -2
124 -2 -1 -54 -35 -115 -77z"/>
<path d="M6055 5545 c-121 -53 -145 -67 -138 -78 4 -7 6 -33 5 -59 l-3 -48 40
0 c41 0 41 0 41 39 0 22 5 42 13 44 9 4 9 7 -1 14 -23 17 -22 50 1 58 12 4 28
6 35 6 6 -1 12 3 12 9 0 5 6 10 14 10 8 0 18 5 21 10 8 13 -3 12 -40 -5z"/>
<path d="M6080 5400 c0 -25 4 -39 10 -35 6 4 7 11 4 17 -4 6 -2 8 3 5 6 -4 16
0 23 8 7 8 9 15 5 15 -4 0 -3 6 3 13 9 10 4 13 -19 15 -28 2 -29 1 -29 -38z"/>
<path d="M3941 5566 c-9 -10 -8 -16 4 -26 13 -11 15 -8 15 14 0 30 -3 32 -19
12z"/>
<path d="M4070 5311 c0 -5 5 -13 10 -16 6 -3 10 -2 10 4 0 5 -4 13 -10 16 -5
3 -10 2 -10 -4z"/>
<path d="M6980 5330 c0 -6 -3 -9 -7 -8 -5 1 -22 -1 -40 -5 -38 -8 -52 -31 -68
-113 -9 -51 -9 -61 3 -61 7 0 18 11 22 23 5 13 28 31 57 44 26 11 51 26 55 33
14 22 9 84 -7 91 -8 3 -15 1 -15 -4z"/>
<path d="M7532 5303 c-14 -24 10 -56 75 -105 30 -22 58 -49 63 -61 7 -17 9
-10 9 29 1 61 -20 116 -51 138 -30 21 -84 21 -96 -1z"/>
<path d="M7671 5074 c0 -11 3 -14 6 -6 3 7 2 16 -1 19 -3 4 -6 -2 -5 -13z"/>
<path d="M6460 4595 c-16 -19 -6 -45 19 -45 23 0 35 28 20 46 -15 18 -24 18
-39 -1z"/>
<path d="M4282 4009 c-15 -6 -139 -240 -156 -296 l-7 -23 770 0 c686 0 771 2
771 15 0 17 -76 260 -89 285 -9 17 -62 20 -416 20 -126 0 -243 0 -260 0 -16 0
-157 1 -313 2 -156 2 -291 0 -300 -3z m114 -44 c-4 -11 -21 -15 -56 -15 -50 0
-57 4 -42 27 8 13 95 22 100 10 2 -4 1 -14 -2 -22z m126 29 c33 -6 35 -8 25
-25 -9 -14 -24 -19 -59 -19 -52 0 -53 1 -38 31 12 21 17 22 72 13z m183 -12
c-3 -8 -5 -18 -5 -23 0 -5 -22 -9 -50 -9 -27 0 -50 4 -50 9 0 28 13 36 60 36
38 0 49 -3 45 -13z m159 -15 c-5 -13 -19 -17 -56 -17 -42 0 -49 3 -46 18 2 12
16 19 48 22 51 6 64 1 54 -23z m156 3 c0 -17 -7 -20 -50 -20 -27 0 -50 2 -50
4 0 25 16 36 56 36 37 0 44 -3 44 -20z m170 0 c0 -17 -7 -20 -50 -20 -43 0
-50 3 -50 20 0 17 7 20 50 20 43 0 50 -3 50 -20z m180 11 c0 -16 -16 -21 -70
-25 -47 -2 -63 8 -43 27 10 11 113 8 113 -2z m158 -8 c-4 -23 -86 -32 -99 -11
-16 24 -9 28 47 28 47 0 55 -3 52 -17z m-1170 -95 c-5 -15 -108 -24 -108 -10
0 17 14 22 63 22 34 0 47 -4 45 -12z m166 -3 c-4 -11 -21 -15 -55 -15 -37 0
-49 4 -49 15 0 12 13 15 55 15 44 0 53 -3 49 -15z m166 0 c0 -12 -13 -15 -55
-15 -44 0 -53 3 -49 15 4 11 21 15 55 15 37 0 49 -4 49 -15z m164 0 c-4 -11
-21 -15 -55 -15 -37 0 -49 4 -49 15 0 12 13 15 55 15 44 0 53 -3 49 -15z m169
0 c-2 -5 -28 -11 -58 -13 -51 -3 -66 4 -48 22 11 11 108 2 106 -9z m177 0 c0
-12 -13 -15 -55 -15 -42 0 -55 3 -55 15 0 12 13 15 55 15 42 0 55 -3 55 -15z
m170 -1 c0 -12 -10 -14 -52 -12 -74 4 -77 28 -4 28 44 0 56 -3 56 -16z m188
-1 c3 -9 -12 -13 -52 -13 -44 0 -56 3 -56 16 0 12 10 14 52 12 30 -2 53 -8 56
-15z m-1050 -80 c-4 -24 -118 -33 -118 -9 0 11 14 16 53 19 28 2 56 4 60 5 5
1 7 -6 5 -15z m-175 -9 c-5 -12 -14 -15 -42 -10 -20 3 -46 6 -58 6 -13 0 -23
5 -23 10 0 6 28 10 65 10 55 0 63 -2 58 -16z m345 4 c-3 -8 -26 -14 -56 -16
-42 -2 -52 0 -52 12 0 13 12 16 56 16 40 0 55 -4 52 -12z m172 -3 c0 -12 -13
-15 -55 -15 -42 0 -55 3 -55 15 0 12 13 15 55 15 42 0 55 -3 55 -15z m170 0
c0 -12 -13 -15 -55 -15 -42 0 -55 3 -55 15 0 12 13 15 55 15 42 0 55 -3 55
-15z m180 0 c0 -12 -13 -15 -55 -15 -42 0 -55 3 -55 15 0 12 13 15 55 15 42 0
55 -3 55 -15z m183 0 c2 -11 -87 -20 -110 -11 -8 3 -11 11 -8 16 8 14 114 9
118 -5z m197 -1 c0 -12 -10 -14 -52 -12 -74 4 -77 28 -4 28 44 0 56 -3 56 -16z"/>
<path d="M5690 3995 c0 -14 71 -187 99 -243 l31 -62 140 0 c76 0 141 4 144 8
3 5 -27 75 -67 155 -51 104 -77 147 -89 147 -14 0 -16 -4 -8 -25 11 -29 5 -34
-37 -28 -23 4 -33 12 -37 29 -6 23 -10 24 -91 24 -47 0 -85 -2 -85 -5z m124
-21 c10 -27 7 -30 -28 -26 -23 3 -36 10 -39 23 -4 16 0 19 28 19 21 0 35 -6
39 -16z m44 -102 c3 -10 -6 -12 -34 -10 -20 2 -39 9 -42 16 -3 10 6 12 34 10
20 -2 39 -9 42 -16z m126 2 c5 -12 -1 -15 -31 -12 -48 4 -57 28 -10 28 22 0
37 -6 41 -16z m-86 -92 c3 -10 -5 -13 -29 -10 -18 2 -34 9 -37 16 -3 10 5 13
29 10 18 -2 34 -9 37 -16z m142 3 c11 -13 6 -15 -34 -15 -34 0 -46 4 -46 15 0
10 10 15 34 15 18 0 39 -7 46 -15z"/>
<path d="M5908 3973 c7 -3 16 -2 19 1 4 3 -2 6 -13 5 -11 0 -14 -3 -6 -6z"/>
<path d="M6150 3902 c0 -20 59 -131 80 -149 10 -9 17 -20 14 -25 -3 -4 0 -8 6
-8 6 0 8 -4 5 -10 -3 -5 -1 -10 5 -10 6 0 16 -11 22 -25 6 -14 15 -25 19 -25
5 0 -15 39 -43 88 -81 138 -108 178 -108 164z"/>
<path d="M4218 3633 c161 -2 422 -2 580 0 158 1 26 2 -293 2 -319 0 -448 -1
-287 -2z"/>
<path d="M6243 3633 c15 -2 39 -2 55 0 15 2 2 4 -28 4 -30 0 -43 -2 -27 -4z"/>
<path d="M5065 3266 c-106 -34 -198 -113 -240 -208 -68 -151 6 -339 164 -415
74 -35 183 -38 252 -7 137 63 220 208 200 349 -5 35 -17 79 -26 99 -61 129
-235 220 -350 182z m155 -187 c61 -55 110 -104 110 -107 0 -4 -47 -54 -104
-111 -122 -122 -96 -124 -246 18 l-95 90 105 105 c57 58 108 106 113 106 4 0
57 -45 117 -101z"/>
</g>
</svg>
