<?xml version="1.0" standalone="no"?>
<!DOCTYPE svg PUBLIC "-//W3C//DTD SVG 20010904//EN"
 "http://www.w3.org/TR/2001/REC-SVG-20010904/DTD/svg10.dtd">
<svg version="1.0" xmlns="http://www.w3.org/2000/svg"
 width="225.000000pt" height="225.000000pt" viewBox="0 0 225.000000 225.000000"
 preserveAspectRatio="xMidYMid meet">
<metadata>
Created by potrace 1.10, written by Peter Selinger 2001-2011
</metadata>
<g transform="translate(0.000000,225.000000) scale(0.100000,-0.100000)"
fill="#000000" stroke="none">
<path d="M1069 2243 c-57 -9 -113 -113 -126 -240 -4 -37 -1 -46 25 -73 17 -16
38 -30 46 -30 23 0 20 -13 -10 -41 -15 -13 -60 -69 -102 -124 -42 -55 -119
-147 -172 -205 -53 -58 -140 -157 -194 -220 -54 -63 -108 -121 -121 -129 -20
-13 -35 -13 -104 -2 -78 13 -82 13 -128 -10 -36 -18 -56 -37 -79 -77 -57 -94
-67 -159 -72 -434 -3 -215 -1 -264 17 -384 33 -213 66 -254 210 -261 72 -3 74
-3 46 11 -16 8 -56 21 -87 30 -90 26 -104 52 -132 247 -17 116 -21 492 -7 564
6 26 9 -39 10 -187 1 -215 16 -392 42 -489 5 -22 25 -51 48 -72 57 -51 117
-61 326 -53 94 4 296 11 450 16 471 17 630 27 653 41 18 11 27 11 57 -4 43
-20 123 -22 148 -2 12 8 31 11 53 8 20 -3 40 -1 48 6 10 8 30 10 60 6 41 -6
50 -4 83 21 21 16 45 36 55 46 23 23 23 76 1 107 -13 19 -14 28 -5 42 15 24
15 124 0 148 -9 14 -8 27 5 60 14 33 15 50 6 90 -7 35 -7 56 0 70 16 29 13 73
-6 100 -13 19 -14 28 -5 42 31 49 6 101 -70 148 -21 12 -38 26 -38 31 0 5 -17
19 -37 32 l-38 23 -620 3 c-341 2 -721 3 -844 3 l-225 -1 -35 -28 c-20 -16
-51 -50 -69 -76 -27 -41 -32 -44 -32 -25 0 32 42 119 67 142 33 29 78 37 143
25 104 -20 119 -10 272 164 73 84 166 188 208 232 41 45 92 105 113 134 42 56
63 73 26 20 -31 -45 -92 -120 -165 -203 -225 -256 -242 -289 -179 -331 42 -28
387 -40 705 -26 249 12 255 12 279 36 l25 25 -20 43 c-10 23 -48 83 -83 133
-82 116 -168 255 -158 255 2 0 24 -28 48 -62 24 -35 80 -112 124 -173 44 -60
94 -129 110 -153 53 -80 69 -88 193 -96 152 -9 230 -34 292 -94 32 -31 52 -60
59 -87 6 -24 11 -203 12 -439 2 -383 2 -399 -17 -413 -11 -8 -29 -11 -43 -8
-13 3 -74 1 -135 -5 -61 -6 -244 -12 -406 -14 -508 -6 -992 -30 -1145 -56 -66
-12 701 -2 865 11 69 5 235 9 370 9 135 -1 283 3 330 9 47 6 99 9 115 6 17 -3
48 1 70 9 l40 14 -3 424 c-4 486 -4 491 -82 568 -72 73 -194 109 -363 110
l-67 0 -43 60 c-23 33 -75 107 -116 163 -41 56 -118 167 -171 247 -54 80 -118
168 -144 197 l-47 52 29 17 c83 49 87 157 10 267 -31 43 -92 68 -149 60z m76
-53 c74 -51 107 -153 67 -211 -40 -60 -71 -89 -96 -89 -14 0 -28 -4 -31 -10
-9 -14 -25 -12 -25 3 0 7 -18 32 -40 55 -22 22 -40 47 -40 53 0 25 33 129 41
129 4 0 12 -8 18 -17 7 -12 3 -28 -12 -56 l-22 -38 33 -29 c46 -43 93 -41 138
4 38 38 43 69 18 119 -38 76 -102 110 -134 72 -7 -8 -18 -15 -24 -15 -11 1 49
60 60 60 3 0 25 -13 49 -30z m-18 -52 c29 -32 43 -62 43 -92 0 -41 -56 -68
-104 -50 -24 9 -19 26 16 55 34 29 34 59 -2 59 -23 0 -24 4 -10 31 14 25 32
24 57 -3z m39 -336 c22 -31 79 -122 126 -202 47 -80 110 -179 140 -220 65 -90
130 -191 126 -195 -11 -10 -521 -26 -658 -21 -180 7 -313 16 -319 22 -10 9
102 149 251 312 36 41 97 117 135 170 86 121 141 192 151 192 4 0 25 -26 48
-58z m211 -747 l563 0 30 -37 c17 -20 49 -47 71 -60 27 -15 42 -32 48 -52 11
-41 6 -44 -24 -16 -23 22 -27 23 -41 8 -15 -15 -13 -20 27 -65 37 -40 44 -54
41 -81 -2 -24 -7 -32 -18 -28 -20 8 -44 -3 -44 -20 0 -8 6 -14 14 -14 25 0 46
-42 46 -92 0 -45 -11 -61 -25 -38 -10 16 -45 12 -45 -5 0 -9 12 -26 26 -39 21
-18 29 -36 35 -86 5 -35 7 -65 5 -68 -3 -2 -17 5 -32 17 -20 16 -30 18 -40 10
-19 -15 -2 -43 41 -72 27 -17 34 -30 38 -62 2 -22 3 -42 1 -44 -2 -2 -26 16
-54 40 -48 41 -51 42 -68 25 -16 -17 -15 -20 31 -62 l49 -44 -36 0 c-20 0 -59
11 -87 25 -42 22 -50 23 -55 10 -4 -9 3 -23 17 -35 21 -17 22 -19 6 -20 -11 0
-30 9 -44 20 -28 22 -58 26 -68 9 -4 -6 1 -17 11 -24 17 -13 14 -14 -34 -15
-49 0 -92 15 -143 52 -9 6 -24 8 -34 4 -17 -6 -17 -8 3 -29 l21 -22 -87 0
c-48 0 -204 -6 -347 -12 -538 -26 -849 -35 -893 -25 -57 13 -91 37 -107 75
-28 70 -40 211 -40 482 l0 270 31 45 c52 75 60 79 159 83 50 3 180 2 290 -2
110 -3 453 -6 762 -6z"/>
<path d="M839 843 c-26 -29 -30 -40 -40 -105 -5 -35 -23 -103 -38 -153 -35
-110 -76 -317 -68 -339 8 -19 41 -21 54 -3 5 6 17 46 26 87 l18 75 87 -4 c48
-2 90 -8 93 -13 3 -5 12 -35 19 -66 14 -67 25 -82 55 -82 50 0 49 13 -22 290
-39 153 -76 276 -88 294 -25 37 -73 47 -96 19z m71 -52 c17 -32 13 -43 -11
-31 -11 7 -27 9 -35 6 -15 -6 -18 3 -8 28 8 22 41 20 54 -3z m9 -171 c17 -63
31 -122 31 -130 0 -12 -14 -15 -70 -15 l-70 0 7 35 c3 19 17 66 30 104 12 38
23 88 23 110 1 58 12 33 49 -104z m86 -182 c8 -33 -4 -36 -30 -8 -15 16 -16
22 -5 35 15 19 26 10 35 -27z"/>
<path d="M1531 847 c-17 -17 -13 -45 6 -56 16 -9 18 -32 18 -243 0 -225 1
-234 23 -269 29 -48 59 -53 186 -34 102 15 126 26 126 54 0 42 -42 50 -158 30
-78 -14 -82 -10 -82 82 l0 66 78 -5 c90 -5 122 6 122 43 0 36 -31 48 -120 44
l-77 -4 -11 85 c-6 47 -14 94 -17 105 -6 19 -2 20 93 17 82 -3 102 -1 115 13
21 20 21 35 3 60 -13 18 -28 20 -154 21 -88 1 -145 -3 -151 -9z m79 -270 c0
-7 9 -23 19 -37 19 -24 19 -25 0 -48 -28 -36 -27 -139 2 -176 23 -29 21 -40
-4 -30 -24 9 -27 26 -34 177 -5 105 -3 138 5 133 7 -4 12 -13 12 -19z"/>
<path d="M325 822 c-65 -41 -83 -83 -61 -136 8 -20 65 -88 126 -151 60 -64
110 -120 110 -126 0 -18 -70 -40 -144 -46 -74 -6 -86 -13 -86 -50 0 -30 32
-45 99 -45 105 -1 189 37 218 96 15 33 15 38 -2 83 -14 37 -44 74 -131 159
-123 121 -125 127 -48 140 43 6 102 -12 136 -43 17 -15 20 -15 35 0 16 16 15
19 -12 48 -68 70 -186 106 -240 71z m40 -40 c-6 -4 -23 -18 -39 -32 -27 -24
-28 -24 -17 -3 6 12 19 27 29 32 20 12 41 15 27 3z m81 -224 c86 -89 104 -116
104 -154 0 -41 -31 -68 -101 -84 -62 -15 -78 -6 -18 10 50 13 99 54 99 83 0
23 -57 103 -103 145 -17 16 -48 46 -67 67 -34 37 -34 38 -5 17 17 -11 57 -49
91 -84z"/>
<path d="M1195 816 c-15 -11 -19 -29 -21 -87 -2 -41 -8 -150 -13 -244 -10
-158 -9 -172 8 -195 32 -44 58 -52 156 -45 102 7 139 20 143 53 7 47 -13 55
-120 47 l-98 -7 0 204 c0 134 4 208 11 215 16 16 -16 72 -42 73 -3 0 -14 -6
-24 -14z m38 -493 c16 -18 32 -23 71 -24 50 -1 50 -2 14 -8 -78 -16 -139 18
-121 65 5 14 8 15 11 3 3 -7 14 -24 25 -36z"/>
</g>
</svg>
